#tb 0: 1/10
0,          0,          0,        1,   192000, 0xc0941c10
0,          1,          1,        1,   192000, 0xe2fe3ae5
0,          2,          2,        1,   192000, 0x4a352d98
0,          3,          3,        1,   192000, 0x7b78e0bb
0,          4,          4,        1,   192000, 0x855c6675
0,          5,          5,        1,   192000, 0xf443dad6
0,          6,          6,        1,   192000, 0xe7e2a2e1
0,          7,          7,        1,   192000, 0xa9009c58
0,          8,          8,        1,   192000, 0x551855ab
0,          9,          9,        1,   192000, 0x253908c7
0,         10,         10,        1,   192000, 0x616213c4
0,         11,         11,        1,   192000, 0xa381c3b1
0,         12,         12,        1,   192000, 0xa2d64152
0,         13,         13,        1,   192000, 0x34ed0f72
0,         14,         14,        1,   192000, 0x05be63b4
